<svg viewBox="0 0 720 470" xmlns="http://www.w3.org/2000/svg" role="img" aria-label="Accuracy and macro-F1, and the share of instances tracked, as the tracking gate is lowered from 20 percent to 3 percent" font-family='system-ui, -apple-system, "Segoe UI", sans-serif' font-size="11"><text x="70.0" y="16.0" fill="#1e293b" text-anchor="start" font-size="12" font-weight="600">Accuracy and macro-F1 by gate</text><line x1="70.0" y1="220.7" x2="630.0" y2="220.7" stroke="#e1e0d9" stroke-width="1"/><text x="62.0" y="224.7" fill="#898781" text-anchor="end" font-size="11" font-weight="400">0.93</text><line x1="70.0" y1="174.0" x2="630.0" y2="174.0" stroke="#e1e0d9" stroke-width="1"/><text x="62.0" y="178.0" fill="#898781" text-anchor="end" font-size="11" font-weight="400">0.94</text><line x1="70.0" y1="127.3" x2="630.0" y2="127.3" stroke="#e1e0d9" stroke-width="1"/><text x="62.0" y="131.3" fill="#898781" text-anchor="end" font-size="11" font-weight="400">0.95</text><line x1="70.0" y1="80.7" x2="630.0" y2="80.7" stroke="#e1e0d9" stroke-width="1"/><text x="62.0" y="84.7" fill="#898781" text-anchor="end" font-size="11" font-weight="400">0.96</text><line x1="70.0" y1="34.0" x2="630.0" y2="34.0" stroke="#e1e0d9" stroke-width="1"/><text x="62.0" y="38.0" fill="#898781" text-anchor="end" font-size="11" font-weight="400">0.97</text><line x1="70.0" y1="244.0" x2="630.0" y2="244.0" stroke="#c3c2b7" stroke-width="1"/><polyline points="70.0,89.7 102.9,88.1 135.9,86.5 168.8,83.2 201.8,83.2 234.7,83.2 267.6,79.9 300.6,78.3 333.5,71.8 366.5,71.8 399.4,70.2 432.4,70.2 465.3,68.5 498.2,63.6 531.2,62.0 564.1,63.6 597.1,63.6 630.0,63.6" fill="none" stroke="#2a78d6" stroke-width="2" stroke-linejoin="round" stroke-linecap="round"/><text x="640.0" y="67.6" fill="#475569" text-anchor="start" font-size="11" font-weight="400">Accuracy</text><polyline points="70.0,222.8 102.9,221.4 135.9,219.4 168.8,216.5 201.8,216.5 234.7,216.5 267.6,214.0 300.6,212.8 333.5,207.8 366.5,207.8 399.4,206.4 432.4,197.0 465.3,195.3 498.2,190.2 531.2,189.1 564.1,199.3 597.1,199.4 630.0,198.6" fill="none" stroke="#eb6834" stroke-width="2" stroke-linejoin="round" stroke-linecap="round"/><text x="640.0" y="202.6" fill="#475569" text-anchor="start" font-size="11" font-weight="400">Macro-F1</text><line x1="432.4" y1="28.0" x2="432.4" y2="400.0" stroke="#1e293b" stroke-width="1"/><text x="432.4" y="24.0" fill="#1e293b" text-anchor="middle" font-size="11" font-weight="600">selected gate: 9%</text><circle cx="432.4" cy="70.2" r="5" fill="#2a78d6" stroke="#ffffff" stroke-width="2"><title>gate 9%: accuracy 0.9623</title></circle><text x="442.4" y="62.2" fill="#1e293b" text-anchor="start" font-size="11" font-weight="600">0.962</text><circle cx="432.4" cy="197.0" r="5" fill="#eb6834" stroke="#ffffff" stroke-width="2"><title>gate 9%: macro-F1 0.9351</title></circle><text x="442.4" y="213.0" fill="#1e293b" text-anchor="start" font-size="11" font-weight="600">0.935</text><line x1="80" y1="48" x2="98" y2="48" stroke="#2a78d6" stroke-width="2" stroke-linecap="round"/><text x="104.0" y="52.0" fill="#475569" text-anchor="start" font-size="11" font-weight="400">Accuracy</text><line x1="80" y1="66" x2="98" y2="66" stroke="#eb6834" stroke-width="2" stroke-linecap="round"/><text x="104.0" y="70.0" fill="#475569" text-anchor="start" font-size="11" font-weight="400">Macro-F1</text><text x="70.0" y="284.0" fill="#1e293b" text-anchor="start" font-size="12" font-weight="600">Instances sent to tracking (%)</text><line x1="70.0" y1="400.0" x2="630.0" y2="400.0" stroke="#e1e0d9" stroke-width="1"/><text x="62.0" y="404.0" fill="#898781" text-anchor="end" font-size="11" font-weight="400">0</text><line x1="70.0" y1="375.0" x2="630.0" y2="375.0" stroke="#e1e0d9" stroke-width="1"/><text x="62.0" y="379.0" fill="#898781" text-anchor="end" font-size="11" font-weight="400">10</text><line x1="70.0" y1="350.0" x2="630.0" y2="350.0" stroke="#e1e0d9" stroke-width="1"/><text x="62.0" y="354.0" fill="#898781" text-anchor="end" font-size="11" font-weight="400">20</text><line x1="70.0" y1="325.0" x2="630.0" y2="325.0" stroke="#e1e0d9" stroke-width="1"/><text x="62.0" y="329.0" fill="#898781" text-anchor="end" font-size="11" font-weight="400">30</text><line x1="70.0" y1="300.0" x2="630.0" y2="300.0" stroke="#e1e0d9" stroke-width="1"/><text x="62.0" y="304.0" fill="#898781" text-anchor="end" font-size="11" font-weight="400">40</text><line x1="70.0" y1="400.0" x2="630.0" y2="400.0" stroke="#c3c2b7" stroke-width="1"/><polyline points="70.0,354.1 102.9,351.4 135.9,349.6 168.8,347.8 201.8,345.4 234.7,343.3 267.6,341.6 300.6,339.2 333.5,336.3 366.5,333.2 399.4,330.4 432.4,327.2 465.3,324.2 498.2,321.5 531.2,318.6 564.1,314.5 597.1,309.7 630.0,302.9" fill="none" stroke="#1baf7a" stroke-width="2" stroke-linejoin="round" stroke-linecap="round"/><circle cx="432.4" cy="327.2" r="5" fill="#1baf7a" stroke="#ffffff" stroke-width="2"><title>gate 9%: 29.1% of instances tracked</title></circle><text x="442.4" y="319.2" fill="#1e293b" text-anchor="start" font-size="11" font-weight="600">29.1%</text><line x1="70.0" y1="400.0" x2="70.0" y2="404.0" stroke="#c3c2b7" stroke-width="1"/><text x="70.0" y="418.0" fill="#898781" text-anchor="middle" font-size="11" font-weight="400">20%</text><line x1="234.7" y1="400.0" x2="234.7" y2="404.0" stroke="#c3c2b7" stroke-width="1"/><text x="234.7" y="418.0" fill="#898781" text-anchor="middle" font-size="11" font-weight="400">15%</text><line x1="399.4" y1="400.0" x2="399.4" y2="404.0" stroke="#c3c2b7" stroke-width="1"/><text x="399.4" y="418.0" fill="#898781" text-anchor="middle" font-size="11" font-weight="400">10%</text><line x1="564.1" y1="400.0" x2="564.1" y2="404.0" stroke="#c3c2b7" stroke-width="1"/><text x="564.1" y="418.0" fill="#898781" text-anchor="middle" font-size="11" font-weight="400">5%</text><line x1="630.0" y1="400.0" x2="630.0" y2="404.0" stroke="#c3c2b7" stroke-width="1"/><text x="630.0" y="418.0" fill="#898781" text-anchor="middle" font-size="11" font-weight="400">3%</text><text x="350.0" y="440.0" fill="#475569" text-anchor="middle" font-size="11" font-weight="400">Gate: track an instance when at least this share of its votes disagree (lower = more tracked)</text></svg>